<?xml version="1.0" encoding="UTF-8"?>
<!-- Do not edit this file with editors other than draw.io -->
<!DOCTYPE svg PUBLIC "-//W3C//DTD SVG 1.1//EN" "http://www.w3.org/Graphics/SVG/1.1/DTD/svg11.dtd">
<svg xmlns="http://www.w3.org/2000/svg" style="background: #ffffff; background-color: light-dark(#ffffff, var(--ge-dark-color, #121212)); color-scheme: light dark;" xmlns:xlink="http://www.w3.org/1999/xlink" version="1.1" width="576px" height="748px" viewBox="0 0 576 748" content="&lt;mxfile host=&quot;app.diagrams.net&quot; scale=&quot;1&quot; border=&quot;0&quot;&gt;&#xA;  &lt;diagram name=&quot;Page-1&quot; id=&quot;UJR5Jc72TvHd_Y-c3Vz6&quot;&gt;&#xA;    &lt;mxGraphModel dx=&quot;1664&quot; dy=&quot;882&quot; grid=&quot;1&quot; gridSize=&quot;10&quot; guides=&quot;1&quot; tooltips=&quot;1&quot; connect=&quot;1&quot; arrows=&quot;1&quot; fold=&quot;1&quot; page=&quot;1&quot; pageScale=&quot;1&quot; pageWidth=&quot;850&quot; pageHeight=&quot;1100&quot; math=&quot;0&quot; shadow=&quot;0&quot;&gt;&#xA;      &lt;root&gt;&#xA;        &lt;mxCell id=&quot;0&quot; /&gt;&#xA;        &lt;mxCell id=&quot;1&quot; parent=&quot;0&quot; /&gt;&#xA;        &lt;mxCell id=&quot;z5ShdwaYixk8t38VOhAP-45&quot; edge=&quot;1&quot; parent=&quot;1&quot; style=&quot;edgeStyle=orthogonalEdgeStyle;rounded=0;orthogonalLoop=1;jettySize=auto;html=1;&quot;&gt;&#xA;          &lt;mxGeometry relative=&quot;1&quot; as=&quot;geometry&quot;&gt;&#xA;            &lt;mxPoint x=&quot;410&quot; y=&quot;285&quot; as=&quot;sourcePoint&quot; /&gt;&#xA;            &lt;mxPoint x=&quot;410&quot; y=&quot;335&quot; as=&quot;targetPoint&quot; /&gt;&#xA;          &lt;/mxGeometry&gt;&#xA;        &lt;/mxCell&gt;&#xA;        &lt;mxCell id=&quot;z5ShdwaYixk8t38VOhAP-47&quot; edge=&quot;1&quot; parent=&quot;1&quot; style=&quot;edgeStyle=orthogonalEdgeStyle;rounded=0;orthogonalLoop=1;jettySize=auto;html=1;&quot;&gt;&#xA;          &lt;mxGeometry relative=&quot;1&quot; as=&quot;geometry&quot;&gt;&#xA;            &lt;mxPoint x=&quot;410&quot; y=&quot;408&quot; as=&quot;sourcePoint&quot; /&gt;&#xA;            &lt;mxPoint x=&quot;410&quot; y=&quot;467&quot; as=&quot;targetPoint&quot; /&gt;&#xA;          &lt;/mxGeometry&gt;&#xA;        &lt;/mxCell&gt;&#xA;        &lt;mxCell id=&quot;z5ShdwaYixk8t38VOhAP-49&quot; parent=&quot;1&quot; style=&quot;image;aspect=fixed;html=1;points=[];align=center;fontSize=12;image=img/lib/azure2/compute/Container_Services_Deprecated.svg;&quot; value=&quot;FastAPI Backend Container&quot; vertex=&quot;1&quot;&gt;&#xA;          &lt;mxGeometry height=&quot;60&quot; width=&quot;68&quot; x=&quot;376&quot; y=&quot;599&quot; as=&quot;geometry&quot; /&gt;&#xA;        &lt;/mxCell&gt;&#xA;        &lt;mxCell id=&quot;z5ShdwaYixk8t38VOhAP-50&quot; parent=&quot;1&quot; style=&quot;verticalLabelPosition=bottom;html=1;verticalAlign=top;align=center;strokeColor=none;fillColor=#00BEF2;shape=mxgraph.azure.sql_database;&quot; value=&quot;&amp;lt;div&amp;gt;PostgreSQL&amp;lt;/div&amp;gt;&amp;lt;div&amp;gt;Container&amp;lt;/div&amp;gt;&quot; vertex=&quot;1&quot;&gt;&#xA;          &lt;mxGeometry height=&quot;50&quot; width=&quot;37.5&quot; x=&quot;265&quot; y=&quot;731&quot; as=&quot;geometry&quot; /&gt;&#xA;        &lt;/mxCell&gt;&#xA;        &lt;mxCell id=&quot;z5ShdwaYixk8t38VOhAP-70&quot; edge=&quot;1&quot; parent=&quot;1&quot; source=&quot;z5ShdwaYixk8t38VOhAP-51&quot; style=&quot;edgeStyle=orthogonalEdgeStyle;rounded=0;orthogonalLoop=1;jettySize=auto;html=1;&quot; target=&quot;z5ShdwaYixk8t38VOhAP-69&quot;&gt;&#xA;          &lt;mxGeometry relative=&quot;1&quot; as=&quot;geometry&quot;&gt;&#xA;            &lt;Array as=&quot;points&quot;&gt;&#xA;              &lt;mxPoint x=&quot;505&quot; y=&quot;700&quot; /&gt;&#xA;              &lt;mxPoint x=&quot;675&quot; y=&quot;700&quot; /&gt;&#xA;            &lt;/Array&gt;&#xA;          &lt;/mxGeometry&gt;&#xA;        &lt;/mxCell&gt;&#xA;        &lt;mxCell id=&quot;z5ShdwaYixk8t38VOhAP-51&quot; parent=&quot;1&quot; style=&quot;verticalLabelPosition=bottom;html=1;verticalAlign=top;align=center;strokeColor=none;fillColor=#00BEF2;shape=mxgraph.azure.computer;pointerEvents=1;&quot; value=&quot;&amp;lt;div&amp;gt;Local file storage&amp;lt;/div&amp;gt;&amp;lt;div&amp;gt;(model weights, images)&amp;lt;/div&amp;gt;&quot; vertex=&quot;1&quot;&gt;&#xA;          &lt;mxGeometry height=&quot;45&quot; width=&quot;50&quot; x=&quot;480&quot; y=&quot;735&quot; as=&quot;geometry&quot; /&gt;&#xA;        &lt;/mxCell&gt;&#xA;        &lt;mxCell id=&quot;z5ShdwaYixk8t38VOhAP-56&quot; parent=&quot;1&quot; style=&quot;verticalLabelPosition=bottom;html=1;verticalAlign=top;align=center;strokeColor=none;fillColor=#00BEF2;shape=mxgraph.azure.server_rack;&quot; value=&quot;BUas Server&quot; vertex=&quot;1&quot;&gt;&#xA;          &lt;mxGeometry height=&quot;50&quot; width=&quot;50&quot; x=&quot;385&quot; y=&quot;210&quot; as=&quot;geometry&quot; /&gt;&#xA;        &lt;/mxCell&gt;&#xA;        &lt;mxCell id=&quot;z5ShdwaYixk8t38VOhAP-57&quot; parent=&quot;1&quot; style=&quot;verticalLabelPosition=bottom;html=1;verticalAlign=top;align=center;strokeColor=none;fillColor=#00BEF2;shape=mxgraph.azure.cloud_services_configuration_file;pointerEvents=1;&quot; value=&quot;Portainer&quot; vertex=&quot;1&quot;&gt;&#xA;          &lt;mxGeometry height=&quot;50&quot; width=&quot;47.5&quot; x=&quot;388&quot; y=&quot;340&quot; as=&quot;geometry&quot; /&gt;&#xA;        &lt;/mxCell&gt;&#xA;        &lt;mxCell id=&quot;z5ShdwaYixk8t38VOhAP-58&quot; parent=&quot;1&quot; style=&quot;verticalLabelPosition=bottom;html=1;verticalAlign=top;align=center;strokeColor=none;fillColor=#00BEF2;shape=mxgraph.azure.computer;pointerEvents=1;&quot; value=&quot;User input/computer&quot; vertex=&quot;1&quot;&gt;&#xA;          &lt;mxGeometry height=&quot;45&quot; width=&quot;50&quot; x=&quot;650&quot; y=&quot;880&quot; as=&quot;geometry&quot; /&gt;&#xA;        &lt;/mxCell&gt;&#xA;        &lt;mxCell id=&quot;z5ShdwaYixk8t38VOhAP-61&quot; parent=&quot;1&quot; style=&quot;image;sketch=0;aspect=fixed;html=1;points=[];align=center;fontSize=12;image=img/lib/mscae/Docker.svg;&quot; value=&quot;&amp;lt;div&amp;gt;Frontend Container&amp;lt;/div&amp;gt;&amp;lt;div&amp;gt;&amp;lt;br&amp;gt;&amp;lt;/div&amp;gt;&quot; vertex=&quot;1&quot;&gt;&#xA;          &lt;mxGeometry height=&quot;41&quot; width=&quot;50&quot; x=&quot;385&quot; y=&quot;479&quot; as=&quot;geometry&quot; /&gt;&#xA;        &lt;/mxCell&gt;&#xA;        &lt;mxCell id=&quot;z5ShdwaYixk8t38VOhAP-62&quot; edge=&quot;1&quot; parent=&quot;1&quot; source=&quot;z5ShdwaYixk8t38VOhAP-61&quot; style=&quot;edgeStyle=orthogonalEdgeStyle;rounded=0;orthogonalLoop=1;jettySize=auto;html=1;entryX=0.5;entryY=-0.033;entryDx=0;entryDy=0;entryPerimeter=0;&quot; target=&quot;z5ShdwaYixk8t38VOhAP-49&quot;&gt;&#xA;          &lt;mxGeometry relative=&quot;1&quot; as=&quot;geometry&quot; /&gt;&#xA;        &lt;/mxCell&gt;&#xA;        &lt;mxCell id=&quot;z5ShdwaYixk8t38VOhAP-63&quot; edge=&quot;1&quot; parent=&quot;1&quot; source=&quot;z5ShdwaYixk8t38VOhAP-58&quot; style=&quot;edgeStyle=orthogonalEdgeStyle;rounded=0;orthogonalLoop=1;jettySize=auto;html=1;exitX=0.5;exitY=0;exitDx=0;exitDy=0;exitPerimeter=0;entryX=1;entryY=0.5;entryDx=0;entryDy=0;entryPerimeter=0;&quot; target=&quot;z5ShdwaYixk8t38VOhAP-51&quot;&gt;&#xA;          &lt;mxGeometry relative=&quot;1&quot; as=&quot;geometry&quot; /&gt;&#xA;        &lt;/mxCell&gt;&#xA;        &lt;mxCell id=&quot;z5ShdwaYixk8t38VOhAP-65&quot; edge=&quot;1&quot; parent=&quot;1&quot; source=&quot;z5ShdwaYixk8t38VOhAP-49&quot; style=&quot;edgeStyle=orthogonalEdgeStyle;rounded=0;orthogonalLoop=1;jettySize=auto;html=1;entryX=0;entryY=0.5;entryDx=0;entryDy=0;entryPerimeter=0;&quot; target=&quot;z5ShdwaYixk8t38VOhAP-51&quot;&gt;&#xA;          &lt;mxGeometry relative=&quot;1&quot; as=&quot;geometry&quot;&gt;&#xA;            &lt;Array as=&quot;points&quot;&gt;&#xA;              &lt;mxPoint x=&quot;420&quot; y=&quot;758&quot; /&gt;&#xA;            &lt;/Array&gt;&#xA;          &lt;/mxGeometry&gt;&#xA;        &lt;/mxCell&gt;&#xA;        &lt;mxCell id=&quot;z5ShdwaYixk8t38VOhAP-66&quot; edge=&quot;1&quot; parent=&quot;1&quot; style=&quot;edgeStyle=orthogonalEdgeStyle;rounded=0;orthogonalLoop=1;jettySize=auto;html=1;entryX=1;entryY=0.5;entryDx=0;entryDy=0;entryPerimeter=0;&quot;&gt;&#xA;          &lt;mxGeometry relative=&quot;1&quot; as=&quot;geometry&quot;&gt;&#xA;            &lt;Array as=&quot;points&quot;&gt;&#xA;              &lt;mxPoint x=&quot;420&quot; y=&quot;758&quot; /&gt;&#xA;            &lt;/Array&gt;&#xA;            &lt;mxPoint x=&quot;420&quot; y=&quot;662&quot; as=&quot;sourcePoint&quot; /&gt;&#xA;            &lt;mxPoint x=&quot;302.5&quot; y=&quot;759&quot; as=&quot;targetPoint&quot; /&gt;&#xA;          &lt;/mxGeometry&gt;&#xA;        &lt;/mxCell&gt;&#xA;        &lt;mxCell id=&quot;z5ShdwaYixk8t38VOhAP-69&quot; parent=&quot;1&quot; style=&quot;verticalLabelPosition=bottom;html=1;verticalAlign=top;align=center;strokeColor=none;fillColor=#00BEF2;shape=mxgraph.azure.cloud;&quot; value=&quot;Azure Blob Storage&quot; vertex=&quot;1&quot;&gt;&#xA;          &lt;mxGeometry height=&quot;71.5&quot; width=&quot;110&quot; x=&quot;640&quot; y=&quot;593.25&quot; as=&quot;geometry&quot; /&gt;&#xA;        &lt;/mxCell&gt;&#xA;        &lt;mxCell id=&quot;z5ShdwaYixk8t38VOhAP-71&quot; parent=&quot;1&quot; style=&quot;verticalLabelPosition=bottom;html=1;verticalAlign=top;align=center;strokeColor=none;fillColor=#00BEF2;shape=mxgraph.azure.automation;pointerEvents=1;&quot; value=&quot;Azure ML Model Registry&quot; vertex=&quot;1&quot;&gt;&#xA;          &lt;mxGeometry height=&quot;102&quot; width=&quot;113.33&quot; x=&quot;660&quot; y=&quot;418&quot; as=&quot;geometry&quot; /&gt;&#xA;        &lt;/mxCell&gt;&#xA;        &lt;mxCell id=&quot;z5ShdwaYixk8t38VOhAP-72&quot; edge=&quot;1&quot; parent=&quot;1&quot; source=&quot;z5ShdwaYixk8t38VOhAP-49&quot; style=&quot;edgeStyle=orthogonalEdgeStyle;rounded=0;orthogonalLoop=1;jettySize=auto;html=1;entryX=-0.009;entryY=0.422;entryDx=0;entryDy=0;entryPerimeter=0;&quot; target=&quot;z5ShdwaYixk8t38VOhAP-71&quot;&gt;&#xA;          &lt;mxGeometry relative=&quot;1&quot; as=&quot;geometry&quot; /&gt;&#xA;        &lt;/mxCell&gt;&#xA;        &lt;mxCell id=&quot;z5ShdwaYixk8t38VOhAP-73&quot; parent=&quot;1&quot; style=&quot;rounded=0;whiteSpace=wrap;html=1;fillColor=none;strokeWidth=3;&quot; value=&quot;&quot; vertex=&quot;1&quot;&gt;&#xA;          &lt;mxGeometry height=&quot;390&quot; width=&quot;330&quot; x=&quot;240&quot; y=&quot;440&quot; as=&quot;geometry&quot; /&gt;&#xA;        &lt;/mxCell&gt;&#xA;        &lt;mxCell id=&quot;z5ShdwaYixk8t38VOhAP-74&quot; parent=&quot;1&quot; style=&quot;rounded=1;whiteSpace=wrap;html=1;fillColor=none;strokeWidth=3;&quot; value=&quot;&quot; vertex=&quot;1&quot;&gt;&#xA;          &lt;mxGeometry height=&quot;680&quot; width=&quot;390&quot; x=&quot;210&quot; y=&quot;200&quot; as=&quot;geometry&quot; /&gt;&#xA;        &lt;/mxCell&gt;&#xA;      &lt;/root&gt;&#xA;    &lt;/mxGraphModel&gt;&#xA;  &lt;/diagram&gt;&#xA;&lt;/mxfile&gt;&#xA;"><defs/><rect fill="#ffffff" style="fill: light-dark(#ffffff, var(--ge-dark-color, #121212));" width="100%" height="100%" x="0" y="0"/><g><g data-cell-id="0"><g data-cell-id="1"><g data-cell-id="z5ShdwaYixk8t38VOhAP-45"><g transform="translate(0.5,0.5)"><path d="M 201 86 L 201 129.63" fill="none" stroke="#000000" style="stroke: light-dark(rgb(0, 0, 0), rgb(255, 255, 255));" stroke-miterlimit="10" pointer-events="stroke"/><path d="M 201 134.88 L 197.5 127.88 L 201 129.63 L 204.5 127.88 Z" fill="#000000" style="fill: light-dark(rgb(0, 0, 0), rgb(255, 255, 255)); stroke: light-dark(rgb(0, 0, 0), rgb(255, 255, 255));" stroke="#000000" stroke-miterlimit="10" pointer-events="all"/></g></g><g data-cell-id="z5ShdwaYixk8t38VOhAP-47"><g transform="translate(0.5,0.5)"><path d="M 201 209 L 201 261.63" fill="none" stroke="#000000" style="stroke: light-dark(rgb(0, 0, 0), rgb(255, 255, 255));" stroke-miterlimit="10" pointer-events="stroke"/><path d="M 201 266.88 L 197.5 259.88 L 201 261.63 L 204.5 259.88 Z" fill="#000000" style="fill: light-dark(rgb(0, 0, 0), rgb(255, 255, 255)); stroke: light-dark(rgb(0, 0, 0), rgb(255, 255, 255));" stroke="#000000" stroke-miterlimit="10" pointer-events="all"/></g></g><g data-cell-id="z5ShdwaYixk8t38VOhAP-49"><g><image x="167" y="400" width="68" height="60" xlink:href="https://app.diagrams.net/img/lib/azure2/compute/Container_Services_Deprecated.svg"/></g><g><g><switch><foreignObject style="overflow: visible; text-align: left;" pointer-events="none" width="100%" height="100%" requiredFeatures="http://www.w3.org/TR/SVG11/feature#Extensibility"><div xmlns="http://www.w3.org/1999/xhtml" style="display: flex; align-items: unsafe flex-start; justify-content: unsafe center; width: 1px; height: 1px; padding-top: 467px; margin-left: 201px;"><div style="box-sizing: border-box; font-size: 0; text-align: center; color: #000000; background-color: #ffffff; "><div style="display: inline-block; font-size: 12px; font-family: Helvetica; color: light-dark(#000000, #ffffff); line-height: 1.2; pointer-events: all; background-color: light-dark(#ffffff, var(--ge-dark-color, #121212)); white-space: nowrap; ">FastAPI Backend Container</div></div></div></foreignObject><text x="201" y="479" fill="light-dark(#000000, #ffffff)" font-family="Helvetica" font-size="12px" text-anchor="middle">FastAPI Bac...</text></switch></g></g></g><g data-cell-id="z5ShdwaYixk8t38VOhAP-50"><g transform="translate(0.5,0.5)"><path d="M 56 538.91 C 57.1 534.97 65.17 532 74.75 532 C 84.33 532 92.4 534.97 93.5 538.91 L 93.5 575.09 C 92.4 579.03 84.33 582 74.75 582 C 65.17 582 57.1 579.03 56 575.09 Z M 61.49 538.91 C 61.49 541.11 67.44 542.9 74.78 542.9 C 82.11 542.9 88.06 541.11 88.06 538.91 C 88.06 536.7 82.11 534.92 74.78 534.92 C 67.44 534.92 61.49 536.7 61.49 538.91 Z M 68.68 553.82 C 67.06 553.43 65.37 553.45 63.75 553.87 C 62.66 554.3 61.91 555.32 61.84 556.49 C 61.73 557.61 62.26 558.7 63.2 559.32 L 65.46 560.27 C 65.69 560.42 65.83 560.67 65.82 560.94 C 65.81 561.21 65.65 561.46 65.41 561.58 C 64.81 561.69 64.18 561.64 63.6 561.43 L 61.94 560.68 L 61.89 563.4 C 62.88 563.8 63.94 563.99 65.01 563.95 C 66.12 564 67.22 563.68 68.13 563.04 C 68.81 562.43 69.22 561.59 69.29 560.68 C 69.25 559.66 68.7 558.73 67.83 558.21 L 65.36 556.95 C 65.19 556.69 65.19 556.35 65.37 556.09 C 65.55 555.83 65.86 555.71 66.17 555.79 C 67.05 555.8 67.92 556.04 68.68 556.49 Z M 74.98 556.14 C 75.98 556.14 76.79 557.3 76.79 558.74 C 76.79 560.17 75.98 561.33 74.98 561.33 C 73.97 561.33 73.16 560.17 73.16 558.74 C 73.16 557.3 73.97 556.14 74.98 556.14 Z M 77.23 563.35 C 79.12 562.41 80.23 560.4 80.01 558.31 C 79.86 556.44 78.78 554.77 77.14 553.87 C 75.99 553.37 74.7 553.32 73.52 553.72 C 72 554.07 70.76 555.17 70.24 556.64 C 69.57 558.34 69.78 560.27 70.8 561.78 C 71.67 563.06 73.08 563.85 74.62 563.95 L 76.69 566.32 L 80.71 566.32 Z M 81.42 563.75 L 87.96 563.75 L 87.96 561.28 L 84.44 561.28 L 84.44 553.62 L 81.42 553.62 Z" fill="#00bef2" style="fill: light-dark(rgb(0, 190, 242), rgb(0, 137, 182));" stroke="none" pointer-events="all"/></g><g><g><switch><foreignObject style="overflow: visible; text-align: left;" pointer-events="none" width="100%" height="100%" requiredFeatures="http://www.w3.org/TR/SVG11/feature#Extensibility"><div xmlns="http://www.w3.org/1999/xhtml" style="display: flex; align-items: unsafe flex-start; justify-content: unsafe center; width: 1px; height: 1px; padding-top: 589px; margin-left: 75px;"><div style="box-sizing: border-box; font-size: 0; text-align: center; color: #000000; "><div style="display: inline-block; font-size: 12px; font-family: Helvetica; color: light-dark(#000000, #ffffff); line-height: 1.2; pointer-events: all; white-space: nowrap; "><div>PostgreSQL</div><div>Container</div></div></div></div></foreignObject><text x="75" y="601" fill="light-dark(#000000, #ffffff)" font-family="Helvetica" font-size="12px" text-anchor="middle">Postgr...</text></switch></g></g></g><g data-cell-id="z5ShdwaYixk8t38VOhAP-70"><g transform="translate(0.5,0.5)"><path d="M 296.06 536 L 296.06 501 L 466.06 501 L 466.06 472.12" fill="none" stroke="#000000" style="stroke: light-dark(rgb(0, 0, 0), rgb(255, 255, 255));" stroke-miterlimit="10" pointer-events="stroke"/><path d="M 466.06 466.87 L 469.56 473.87 L 466.06 472.12 L 462.56 473.87 Z" fill="#000000" style="fill: light-dark(rgb(0, 0, 0), rgb(255, 255, 255)); stroke: light-dark(rgb(0, 0, 0), rgb(255, 255, 255));" stroke="#000000" stroke-miterlimit="10" pointer-events="all"/></g></g><g data-cell-id="z5ShdwaYixk8t38VOhAP-51"><g transform="translate(0.5,0.5)"><rect x="271" y="536" width="50" height="45" fill="none" stroke="none" pointer-events="all"/><path d="M 273.33 571.55 C 272.66 571.49 272.05 571.17 271.62 570.66 C 271.2 570.16 271 569.51 271.07 568.86 L 271.07 538.51 C 271.17 537.25 272.15 536.24 273.43 536.06 L 318.14 536.06 C 319.61 536 320.87 537.08 321 538.51 L 320.95 569.35 C 320.66 570.65 319.5 571.59 318.14 571.65 L 302.46 571.65 L 301.76 574.44 C 301.6 575.08 301.71 575.76 302.07 576.33 C 302.43 576.89 303.01 577.29 303.67 577.43 C 305.19 577.93 306.79 578.15 308.39 578.06 L 311.31 578.06 L 311.31 581 L 278.71 581 L 278.71 578.06 L 282.17 578.06 C 283.99 578.07 285.79 577.78 287.5 577.18 C 288.84 576.87 289.67 575.55 289.35 574.24 L 288.9 571.65 Z M 274.79 568.03 L 317.13 568.03 L 317.13 539.83 L 274.79 539.83 Z" fill="#00bef2" style="fill: light-dark(rgb(0, 190, 242), rgb(0, 137, 182));" stroke="none" pointer-events="all"/></g><g><g><switch><foreignObject style="overflow: visible; text-align: left;" pointer-events="none" width="100%" height="100%" requiredFeatures="http://www.w3.org/TR/SVG11/feature#Extensibility"><div xmlns="http://www.w3.org/1999/xhtml" style="display: flex; align-items: unsafe flex-start; justify-content: unsafe center; width: 1px; height: 1px; padding-top: 588px; margin-left: 296px;"><div style="box-sizing: border-box; font-size: 0; text-align: center; color: #000000; "><div style="display: inline-block; font-size: 12px; font-family: Helvetica; color: light-dark(#000000, #ffffff); line-height: 1.2; pointer-events: all; white-space: nowrap; "><div>Local file storage</div><div>(model weights, images)</div></div></div></div></foreignObject><text x="296" y="600" fill="light-dark(#000000, #ffffff)" font-family="Helvetica" font-size="12px" text-anchor="middle">Local fi...</text></switch></g></g></g><g data-cell-id="z5ShdwaYixk8t38VOhAP-56"><g transform="translate(0.5,0.5)"><path d="M 176.06 30.07 C 176.11 28.97 177 28.12 178.07 28.12 L 223.94 28.12 C 225.01 28.12 225.9 28.97 225.95 30.07 L 226 41.88 C 226 42.43 225.78 42.96 225.39 43.35 C 225 43.73 224.48 43.94 223.94 43.93 L 178.07 43.93 C 176.96 43.93 176.06 43.01 176.06 41.88 Z M 182.1 40.18 C 182.1 39.54 181.76 38.95 181.22 38.63 C 180.67 38.3 180 38.3 179.45 38.63 C 178.91 38.95 178.57 39.54 178.57 40.18 C 178.57 40.82 178.91 41.42 179.45 41.74 C 180 42.06 180.67 42.06 181.22 41.74 C 181.76 41.42 182.1 40.82 182.1 40.18 Z M 212.31 40.03 C 212 40.03 211.75 40.28 211.75 40.59 C 211.75 40.9 212 41.16 212.31 41.16 L 222.37 41.16 C 222.68 41.16 222.93 40.9 222.93 40.59 C 222.93 40.28 222.68 40.03 222.37 40.03 Z M 212.31 38.08 C 212 38.08 211.75 38.33 211.75 38.64 C 211.75 38.95 212 39.21 212.31 39.21 L 222.37 39.21 C 222.68 39.21 222.93 38.95 222.93 38.64 C 222.93 38.33 222.68 38.08 222.37 38.08 Z M 212.31 36.07 C 212 36.07 211.75 36.33 211.75 36.64 C 211.75 36.95 212 37.2 212.31 37.2 L 222.37 37.2 C 222.68 37.2 222.93 36.95 222.93 36.64 C 222.93 36.33 222.68 36.07 222.37 36.07 Z M 176 12.95 C 176.05 11.86 176.94 11 178.01 11 L 223.88 11 C 224.95 11 225.84 11.86 225.89 12.95 L 225.94 24.76 C 225.94 25.31 225.73 25.84 225.34 26.23 C 224.95 26.62 224.42 26.83 223.88 26.81 L 178.01 26.81 C 176.9 26.81 176 25.89 176 24.76 Z M 182.04 23.06 C 182.04 22.42 181.71 21.83 181.16 21.51 C 180.62 21.19 179.94 21.19 179.4 21.51 C 178.85 21.83 178.52 22.42 178.52 23.06 C 178.52 23.71 178.85 24.3 179.4 24.62 C 179.94 24.94 180.62 24.94 181.16 24.62 C 181.71 24.3 182.04 23.71 182.04 23.06 Z M 212.25 22.91 C 211.94 22.91 211.7 23.16 211.7 23.48 C 211.7 23.79 211.94 24.04 212.25 24.04 L 222.32 24.04 C 222.63 24.04 222.87 23.79 222.87 23.48 C 222.87 23.16 222.63 22.91 222.32 22.91 Z M 212.25 20.96 C 211.94 20.96 211.7 21.21 211.7 21.52 C 211.7 21.84 211.94 22.09 212.25 22.09 L 222.32 22.09 C 222.63 22.09 222.87 21.84 222.87 21.52 C 222.87 21.21 222.63 20.96 222.32 20.96 Z M 212.25 18.96 C 211.94 18.96 211.7 19.21 211.7 19.52 C 211.7 19.83 211.94 20.09 212.25 20.09 L 222.32 20.09 C 222.63 20.09 222.87 19.83 222.87 19.52 C 222.87 19.21 222.63 18.96 222.32 18.96 Z M 176.06 47.12 C 176.11 46.03 177 45.17 178.07 45.17 L 223.94 45.17 C 225.01 45.17 225.9 46.03 225.95 47.12 L 226 58.93 C 226 59.48 225.78 60.01 225.39 60.4 C 225 60.79 224.48 61 223.94 60.98 L 178.07 60.98 C 176.96 60.98 176.06 60.07 176.06 58.93 Z M 182.1 57.24 C 182.1 56.59 181.76 56 181.22 55.68 C 180.67 55.36 180 55.36 179.45 55.68 C 178.91 56 178.57 56.59 178.57 57.24 C 178.57 57.88 178.91 58.47 179.45 58.79 C 180 59.11 180.67 59.11 181.22 58.79 C 181.76 58.47 182.1 57.88 182.1 57.24 Z M 212.31 57.08 C 212 57.08 211.75 57.34 211.75 57.65 C 211.75 57.96 212 58.21 212.31 58.21 L 222.37 58.21 C 222.68 58.21 222.93 57.96 222.93 57.65 C 222.93 57.34 222.68 57.08 222.37 57.08 Z M 212.31 55.13 C 212 55.13 211.75 55.38 211.75 55.7 C 211.75 56.01 212 56.26 212.31 56.26 L 222.37 56.26 C 222.68 56.26 222.93 56.01 222.93 55.7 C 222.93 55.38 222.68 55.13 222.37 55.13 Z M 212.31 53.13 C 212 53.13 211.75 53.38 211.75 53.69 C 211.75 54.01 212 54.26 212.31 54.26 L 222.37 54.26 C 222.68 54.26 222.93 54.01 222.93 53.69 C 222.93 53.38 222.68 53.13 222.37 53.13 Z" fill="#00bef2" style="fill: light-dark(rgb(0, 190, 242), rgb(0, 137, 182));" stroke="none" pointer-events="all"/></g><g><g><switch><foreignObject style="overflow: visible; text-align: left;" pointer-events="none" width="100%" height="100%" requiredFeatures="http://www.w3.org/TR/SVG11/feature#Extensibility"><div xmlns="http://www.w3.org/1999/xhtml" style="display: flex; align-items: unsafe flex-start; justify-content: unsafe center; width: 1px; height: 1px; padding-top: 68px; margin-left: 201px;"><div style="box-sizing: border-box; font-size: 0; text-align: center; color: #000000; "><div style="display: inline-block; font-size: 12px; font-family: Helvetica; color: light-dark(#000000, #ffffff); line-height: 1.2; pointer-events: all; white-space: nowrap; ">BUas Server</div></div></div></foreignObject><text x="201" y="80" fill="light-dark(#000000, #ffffff)" font-family="Helvetica" font-size="12px" text-anchor="middle">BUas Ser...</text></switch></g></g></g><g data-cell-id="z5ShdwaYixk8t38VOhAP-57"><g transform="translate(0.5,0.5)"><rect x="179" y="141" width="47.5" height="50" fill="none" stroke="none" pointer-events="all"/><path d="M 179 146.76 C 179.35 143.72 181.73 141.33 184.73 141 L 216.64 141 L 226.5 150.95 L 226.5 184.79 C 226.33 188.12 223.73 190.79 220.45 191 L 184.73 191 C 181.77 190.68 179.41 188.37 179 185.38 Z M 182.88 184.48 C 182.88 185.69 183.72 186.72 184.88 186.96 L 220.53 186.96 C 221.66 186.7 222.47 185.67 222.47 184.48 L 222.47 153.27 L 214.5 153.27 L 214.5 145.09 L 184.88 145.09 C 183.81 145.36 183.04 146.3 182.98 147.41 Z M 191.45 157.01 L 213.45 157.01 L 213.45 161.15 L 191.45 161.15 Z M 191.45 164.89 L 213.45 164.89 L 213.45 169.03 L 191.45 169.03 Z M 191.45 172.77 L 213.45 172.77 L 213.45 176.96 L 191.45 176.96 Z" fill="#00bef2" style="fill: light-dark(rgb(0, 190, 242), rgb(0, 137, 182));" stroke="none" pointer-events="all"/></g><g><g><switch><foreignObject style="overflow: visible; text-align: left;" pointer-events="none" width="100%" height="100%" requiredFeatures="http://www.w3.org/TR/SVG11/feature#Extensibility"><div xmlns="http://www.w3.org/1999/xhtml" style="display: flex; align-items: unsafe flex-start; justify-content: unsafe center; width: 1px; height: 1px; padding-top: 198px; margin-left: 203px;"><div style="box-sizing: border-box; font-size: 0; text-align: center; color: #000000; "><div style="display: inline-block; font-size: 12px; font-family: Helvetica; color: light-dark(#000000, #ffffff); line-height: 1.2; pointer-events: all; white-space: nowrap; ">Portainer</div></div></div></foreignObject><text x="203" y="210" fill="light-dark(#000000, #ffffff)" font-family="Helvetica" font-size="12px" text-anchor="middle">Portainer</text></switch></g></g></g><g data-cell-id="z5ShdwaYixk8t38VOhAP-58"><g transform="translate(0.5,0.5)"><rect x="441" y="681" width="50" height="45" fill="none" stroke="none" pointer-events="all"/><path d="M 443.33 716.55 C 442.66 716.49 442.05 716.17 441.62 715.66 C 441.2 715.16 441 714.51 441.07 713.86 L 441.07 683.51 C 441.17 682.25 442.15 681.24 443.43 681.06 L 488.14 681.06 C 489.61 681 490.87 682.08 491 683.51 L 490.95 714.35 C 490.66 715.65 489.5 716.59 488.14 716.65 L 472.46 716.65 L 471.76 719.44 C 471.6 720.08 471.71 720.76 472.07 721.33 C 472.43 721.89 473.01 722.29 473.67 722.43 C 475.19 722.93 476.79 723.15 478.39 723.06 L 481.31 723.06 L 481.31 726 L 448.71 726 L 448.71 723.06 L 452.17 723.06 C 453.99 723.07 455.79 722.78 457.5 722.18 C 458.84 721.87 459.67 720.55 459.35 719.24 L 458.9 716.65 Z M 444.79 713.03 L 487.13 713.03 L 487.13 684.83 L 444.79 684.83 Z" fill="#00bef2" style="fill: light-dark(rgb(0, 190, 242), rgb(0, 137, 182));" stroke="none" pointer-events="all"/></g><g><g><switch><foreignObject style="overflow: visible; text-align: left;" pointer-events="none" width="100%" height="100%" requiredFeatures="http://www.w3.org/TR/SVG11/feature#Extensibility"><div xmlns="http://www.w3.org/1999/xhtml" style="display: flex; align-items: unsafe flex-start; justify-content: unsafe center; width: 1px; height: 1px; padding-top: 733px; margin-left: 466px;"><div style="box-sizing: border-box; font-size: 0; text-align: center; color: #000000; "><div style="display: inline-block; font-size: 12px; font-family: Helvetica; color: light-dark(#000000, #ffffff); line-height: 1.2; pointer-events: all; white-space: nowrap; ">User input/computer</div></div></div></foreignObject><text x="466" y="745" fill="light-dark(#000000, #ffffff)" font-family="Helvetica" font-size="12px" text-anchor="middle">User inp...</text></switch></g></g></g><g data-cell-id="z5ShdwaYixk8t38VOhAP-61"><g><image x="176" y="280" width="50" height="41" xlink:href="https://app.diagrams.net/img/lib/mscae/Docker.svg"/></g><g><g><switch><foreignObject style="overflow: visible; text-align: left;" pointer-events="none" width="100%" height="100%" requiredFeatures="http://www.w3.org/TR/SVG11/feature#Extensibility"><div xmlns="http://www.w3.org/1999/xhtml" style="display: flex; align-items: unsafe flex-start; justify-content: unsafe center; width: 1px; height: 1px; padding-top: 328px; margin-left: 201px;"><div style="box-sizing: border-box; font-size: 0; text-align: center; color: #000000; background-color: #ffffff; "><div style="display: inline-block; font-size: 12px; font-family: Helvetica; color: light-dark(#000000, #ffffff); line-height: 1.2; pointer-events: all; background-color: light-dark(#ffffff, var(--ge-dark-color, #121212)); white-space: nowrap; "><div>Frontend Container</div><div><br /></div></div></div></div></foreignObject><text x="201" y="340" fill="light-dark(#000000, #ffffff)" font-family="Helvetica" font-size="12px" text-anchor="middle">Frontend...</text></switch></g></g></g><g data-cell-id="z5ShdwaYixk8t38VOhAP-62"><g transform="translate(0.5,0.5)"><path d="M 201 321 L 201 391.65" fill="none" stroke="#000000" style="stroke: light-dark(rgb(0, 0, 0), rgb(255, 255, 255));" stroke-miterlimit="10" pointer-events="stroke"/><path d="M 201 396.9 L 197.5 389.9 L 201 391.65 L 204.5 389.9 Z" fill="#000000" style="fill: light-dark(rgb(0, 0, 0), rgb(255, 255, 255)); stroke: light-dark(rgb(0, 0, 0), rgb(255, 255, 255));" stroke="#000000" stroke-miterlimit="10" pointer-events="all"/></g></g><g data-cell-id="z5ShdwaYixk8t38VOhAP-63"><g transform="translate(0.5,0.5)"><path d="M 466 681 L 466.06 558.53 L 327.37 558.5" fill="none" stroke="#000000" style="stroke: light-dark(rgb(0, 0, 0), rgb(255, 255, 255));" stroke-miterlimit="10" pointer-events="stroke"/><path d="M 322.12 558.5 L 329.12 555 L 327.37 558.5 L 329.12 562 Z" fill="#000000" style="fill: light-dark(rgb(0, 0, 0), rgb(255, 255, 255)); stroke: light-dark(rgb(0, 0, 0), rgb(255, 255, 255));" stroke="#000000" stroke-miterlimit="10" pointer-events="all"/></g></g><g data-cell-id="z5ShdwaYixk8t38VOhAP-65"><g transform="translate(0.5,0.5)"><path d="M 211 460 L 211 558.53 L 264.63 558.5" fill="none" stroke="#000000" style="stroke: light-dark(rgb(0, 0, 0), rgb(255, 255, 255));" stroke-miterlimit="10" pointer-events="stroke"/><path d="M 269.88 558.5 L 262.88 562 L 264.63 558.5 L 262.88 555 Z" fill="#000000" style="fill: light-dark(rgb(0, 0, 0), rgb(255, 255, 255)); stroke: light-dark(rgb(0, 0, 0), rgb(255, 255, 255));" stroke="#000000" stroke-miterlimit="10" pointer-events="all"/></g></g><g data-cell-id="z5ShdwaYixk8t38VOhAP-66"><g transform="translate(0.5,0.5)"><path d="M 211 463 L 211 559 L 99.84 559" fill="none" stroke="#000000" style="stroke: light-dark(rgb(0, 0, 0), rgb(255, 255, 255));" stroke-miterlimit="10" pointer-events="stroke"/><path d="M 94.59 559 L 101.59 555.5 L 99.84 559 L 101.59 562.5 Z" fill="#000000" style="fill: light-dark(rgb(0, 0, 0), rgb(255, 255, 255)); stroke: light-dark(rgb(0, 0, 0), rgb(255, 255, 255));" stroke="#000000" stroke-miterlimit="10" pointer-events="all"/></g></g><g data-cell-id="z5ShdwaYixk8t38VOhAP-69"><g transform="translate(0.5,0.5)"><path d="M 452.98 465.57 C 444.27 464.6 436.88 458.81 433.95 450.65 C 431.03 442.5 433.07 433.41 439.22 427.24 C 445.36 421.07 454.54 418.91 462.85 421.66 C 468.2 404.16 486.92 394.25 504.66 399.53 C 522.4 404.81 532.44 423.28 527.09 440.79 C 533.64 440.56 539.3 445.29 540.15 451.7 C 541 458.12 536.77 464.12 530.38 465.57 C 530.41 465.48 452.85 465.75 452.85 465.75 Z" fill="#00bef2" style="fill: light-dark(rgb(0, 190, 242), rgb(0, 137, 182));" stroke="none" pointer-events="all"/></g><g><g><switch><foreignObject style="overflow: visible; text-align: left;" pointer-events="none" width="100%" height="100%" requiredFeatures="http://www.w3.org/TR/SVG11/feature#Extensibility"><div xmlns="http://www.w3.org/1999/xhtml" style="display: flex; align-items: unsafe flex-start; justify-content: unsafe center; width: 1px; height: 1px; padding-top: 473px; margin-left: 486px;"><div style="box-sizing: border-box; font-size: 0; text-align: center; color: #000000; "><div style="display: inline-block; font-size: 12px; font-family: Helvetica; color: light-dark(#000000, #ffffff); line-height: 1.2; pointer-events: all; white-space: nowrap; ">Azure Blob Storage</div></div></div></foreignObject><text x="486" y="485" fill="light-dark(#000000, #ffffff)" font-family="Helvetica" font-size="12px" text-anchor="middle">Azure Blob Storage</text></switch></g></g></g><g data-cell-id="z5ShdwaYixk8t38VOhAP-71"><g transform="translate(0.5,0.5)"><rect x="451" y="219" width="113.33" height="102" fill="none" stroke="none" pointer-events="all"/><path d="M 511.17 267.47 L 526.36 219 C 533.06 219.62 539.54 221.7 545.35 225.09 L 526.25 258.97 L 537.87 258.86 L 511.98 288.26 L 520.61 267.47 Z M 516.24 241.17 C 503.63 243.35 494.27 254.06 493.83 266.83 C 493.38 279.6 501.97 290.93 514.39 293.98 C 526.82 297.03 539.69 290.96 545.23 279.44 C 550.76 267.92 547.45 254.11 537.29 246.34 L 543.97 236.57 L 548.8 233.7 L 554.9 239.68 L 549.83 248.06 L 552.25 252.66 L 562.03 252.43 L 564.33 260.47 L 555.7 265.06 L 555.7 270.46 L 564.21 275.05 L 562.14 283.09 L 552.13 282.86 L 549.72 287.69 L 554.78 295.73 L 548.68 301.82 L 540.4 296.65 L 536.03 299.06 L 536.14 308.94 L 528.09 311.24 L 523.37 302.62 L 518.19 302.62 L 513.48 311.24 L 505.31 308.94 L 505.65 299.18 L 501.05 296.65 L 492.42 301.82 L 486.67 295.73 L 491.84 287.34 L 489.31 282.86 L 479.42 283.09 L 477.46 274.94 L 485.86 270.34 L 485.86 265.18 L 477.35 260.58 L 479.53 252.43 L 489.31 252.66 L 491.84 248.06 L 486.67 239.79 L 492.65 233.93 L 501.28 238.76 L 505.54 236.46 L 505.42 226.47 L 513.36 224.28 L 518.19 232.78 Z M 471.48 284.24 L 473.21 289.53 L 476.31 290.68 L 480.91 288.26 L 483.79 291.14 L 481.49 295.96 L 482.99 299.06 L 487.82 300.67 L 488.05 304.69 L 483.1 306.41 L 481.49 309.28 L 484.02 314.11 L 481.14 316.98 L 476.43 314.91 L 473.21 316.06 L 471.71 321 L 467.57 321 L 465.84 316.18 L 462.85 314.8 L 458.02 317.32 L 455.03 314.34 L 457.33 309.63 L 456.41 306.76 L 451 304.8 L 451.23 300.78 L 456.06 299.06 L 457.44 296.07 L 454.91 291.36 L 457.79 288.26 L 462.85 290.68 L 465.73 289.53 L 467.22 284.47 L 471.13 284.24 Z M 469.75 296.65 C 466.26 296.65 463.43 299.48 463.43 302.97 C 463.43 306.46 466.26 309.28 469.75 309.28 C 471.43 309.28 473.04 308.62 474.23 307.43 C 475.42 306.25 476.08 304.64 476.08 302.97 C 476.08 301.29 475.42 299.68 474.23 298.5 C 473.04 297.31 471.43 296.65 469.75 296.65" fill="#00bef2" style="fill: light-dark(rgb(0, 190, 242), rgb(0, 137, 182));" stroke="none" pointer-events="all"/></g><g><g><switch><foreignObject style="overflow: visible; text-align: left;" pointer-events="none" width="100%" height="100%" requiredFeatures="http://www.w3.org/TR/SVG11/feature#Extensibility"><div xmlns="http://www.w3.org/1999/xhtml" style="display: flex; align-items: unsafe flex-start; justify-content: unsafe center; width: 1px; height: 1px; padding-top: 328px; margin-left: 508px;"><div style="box-sizing: border-box; font-size: 0; text-align: center; color: #000000; "><div style="display: inline-block; font-size: 12px; font-family: Helvetica; color: light-dark(#000000, #ffffff); line-height: 1.2; pointer-events: all; white-space: nowrap; ">Azure ML Model Registry</div></div></div></foreignObject><text x="508" y="340" fill="light-dark(#000000, #ffffff)" font-family="Helvetica" font-size="12px" text-anchor="middle">Azure ML Model Regi...</text></switch></g></g></g><g data-cell-id="z5ShdwaYixk8t38VOhAP-72"><g transform="translate(0.5,0.5)"><path d="M 235 430.06 L 343 430.06 L 343 262.06 L 443.61 262.04" fill="none" stroke="#000000" style="stroke: light-dark(rgb(0, 0, 0), rgb(255, 255, 255));" stroke-miterlimit="10" pointer-events="stroke"/><path d="M 448.86 262.04 L 441.86 265.55 L 443.61 262.04 L 441.86 258.55 Z" fill="#000000" style="fill: light-dark(rgb(0, 0, 0), rgb(255, 255, 255)); stroke: light-dark(rgb(0, 0, 0), rgb(255, 255, 255));" stroke="#000000" stroke-miterlimit="10" pointer-events="all"/></g></g><g data-cell-id="z5ShdwaYixk8t38VOhAP-73"><g transform="translate(0.5,0.5)"><rect x="31" y="241" width="330" height="390" fill="none" stroke="#000000" style="stroke: light-dark(rgb(0, 0, 0), rgb(255, 255, 255));" stroke-width="3" pointer-events="all"/></g></g><g data-cell-id="z5ShdwaYixk8t38VOhAP-74"><g transform="translate(0.5,0.5)"><rect x="1" y="1" width="390" height="680" rx="58.5" ry="58.5" fill="none" stroke="#000000" style="stroke: light-dark(rgb(0, 0, 0), rgb(255, 255, 255));" stroke-width="3" pointer-events="all"/></g></g></g></g></g></svg>